<svg width="131" height="127" viewBox="0 0 131 127" fill="none" xmlns="http://www.w3.org/2000/svg">
<path d="M13.1 126.258C9.4975 126.258 6.41463 124.96 3.8514 122.362C1.28817 119.765 0.00436667 116.639 0 112.985V39.9793C0 36.329 1.2838 33.2052 3.8514 30.608C6.419 28.0108 9.50187 26.71 13.1 26.7056H39.3V13.4319C39.3 9.78162 40.5838 6.65788 43.1514 4.06067C45.719 1.46345 48.8019 0.162628 52.4 0.158203H78.6C82.2025 0.158203 85.2875 1.45902 87.8551 4.06067C90.4227 6.66231 91.7044 9.78605 91.7 13.4319V26.7056H117.9C121.502 26.7056 124.588 28.0064 127.155 30.608C129.723 33.2097 131.004 36.3334 131 39.9793V112.985C131 116.635 129.718 119.761 127.155 122.362C124.592 124.964 121.507 126.263 117.9 126.258H13.1ZM13.1 112.985H117.9V39.9793H13.1V112.985ZM52.4 26.7056H78.6V13.4319H52.4V26.7056Z" fill="#F8F8F8"/>
</svg>
