<svg width="140" height="81" viewBox="0 0 140 81" fill="none" xmlns="http://www.w3.org/2000/svg">
<path d="M40.5 76V70.0833C40.5 62.2373 43.6168 54.7127 49.1648 49.1648C54.7127 43.6168 62.2373 40.5 70.0833 40.5M70.0833 40.5C77.9293 40.5 85.4539 43.6168 91.0019 49.1648C96.5499 54.7127 99.6667 62.2373 99.6667 70.0833V76M70.0833 40.5C74.7909 40.5 79.3057 38.6299 82.6345 35.3011C85.9632 31.9724 87.8333 27.4576 87.8333 22.75C87.8333 18.0424 85.9632 13.5276 82.6345 10.1989C79.3057 6.87008 74.7909 5 70.0833 5C65.3757 5 60.861 6.87008 57.5322 10.1989C54.2034 13.5276 52.3333 18.0424 52.3333 22.75C52.3333 27.4576 54.2034 31.9724 57.5322 35.3011C60.861 38.6299 65.3757 40.5 70.0833 40.5ZM5 76V70.0833C5 65.3757 6.87008 60.861 10.1989 57.5322C13.5276 54.2034 18.0424 52.3333 22.75 52.3333M22.75 52.3333C25.8884 52.3333 28.8982 51.0866 31.1174 48.8674C33.3366 46.6482 34.5833 43.6384 34.5833 40.5C34.5833 37.3616 33.3366 34.3518 31.1174 32.1326C28.8982 29.9134 25.8884 28.6667 22.75 28.6667C19.6116 28.6667 16.6017 29.9134 14.3826 32.1326C12.1634 34.3518 10.9167 37.3616 10.9167 40.5C10.9167 43.6384 12.1634 46.6482 14.3826 48.8674C16.6017 51.0866 19.6116 52.3333 22.75 52.3333ZM135.167 76V70.0833C135.167 65.3757 133.297 60.861 129.968 57.5322C126.639 54.2034 122.124 52.3333 117.417 52.3333M117.417 52.3333C120.555 52.3333 123.565 51.0866 125.784 48.8674C128.003 46.6482 129.25 43.6384 129.25 40.5C129.25 37.3616 128.003 34.3518 125.784 32.1326C123.565 29.9134 120.555 28.6667 117.417 28.6667C114.278 28.6667 111.268 29.9134 109.049 32.1326C106.83 34.3518 105.583 37.3616 105.583 40.5C105.583 43.6384 106.83 46.6482 109.049 48.8674C111.268 51.0866 114.278 52.3333 117.417 52.3333Z" stroke="#F8F8F8" stroke-width="8.875" stroke-linecap="round" stroke-linejoin="round"/>
</svg>
