<svg width="33" height="33" viewBox="0 0 33 33" fill="none" xmlns="http://www.w3.org/2000/svg">
<path d="M25.1447 0H7.69737C3.44623 0 0 3.44623 0 7.69737V25.1447C0 29.3959 3.44623 32.8421 7.69737 32.8421H25.1447C29.3959 32.8421 32.8421 29.3959 32.8421 25.1447V7.69737C32.8421 3.44623 29.3959 0 25.1447 0Z" fill="url(#paint0_radial_1497_156)"/>
<path d="M25.1447 0H7.69737C3.44623 0 0 3.44623 0 7.69737V25.1447C0 29.3959 3.44623 32.8421 7.69737 32.8421H25.1447C29.3959 32.8421 32.8421 29.3959 32.8421 25.1447V7.69737C32.8421 3.44623 29.3959 0 25.1447 0Z" fill="url(#paint1_radial_1497_156)"/>
<path d="M16.4223 3.59229C12.9382 3.59229 12.5008 3.60755 11.1325 3.66977C9.76674 3.73238 8.83446 3.94855 8.01879 4.2658C7.1749 4.59346 6.45918 5.03182 5.74614 5.74511C5.03247 6.45827 4.5941 7.174 4.26543 8.0175C3.94727 8.83342 3.73084 9.76609 3.66939 11.1312C3.6082 12.4997 3.59216 12.9371 3.59216 16.4214C3.59216 19.9056 3.60756 20.3415 3.66965 21.7098C3.73251 23.0756 3.94868 24.0079 4.26568 24.8236C4.59359 25.6674 5.03196 26.3832 5.74525 27.0962C6.45815 27.8099 7.17388 28.2493 8.01712 28.5769C8.83343 28.8942 9.76584 29.1103 11.1314 29.1729C12.4998 29.2352 12.9368 29.2504 16.4207 29.2504C19.9052 29.2504 20.3411 29.2352 21.7095 29.1729C23.0752 29.1103 24.0085 28.8942 24.8248 28.5769C25.6683 28.2493 26.383 27.8099 27.0958 27.0962C27.8095 26.3832 28.2477 25.6674 28.5765 24.8239C28.8919 24.0079 29.1084 23.0754 29.1726 21.7101C29.234 20.3418 29.2501 19.9056 29.2501 16.4214C29.2501 12.9371 29.234 12.4999 29.1726 11.1315C29.1084 9.7657 28.8919 8.83355 28.5765 8.01789C28.2477 7.174 27.8095 6.45827 27.0958 5.74511C26.3823 5.03156 25.6686 4.5932 24.8241 4.26593C24.0062 3.94854 23.0734 3.73225 21.7077 3.66977C20.3392 3.60755 19.9035 3.59229 16.4183 3.59229H16.4223ZM15.2714 5.90419C15.613 5.90368 15.9942 5.90419 16.4223 5.90419C19.8477 5.90419 20.2536 5.91651 21.6063 5.97796C22.8571 6.03517 23.536 6.24416 23.9883 6.41979C24.587 6.65225 25.0138 6.93025 25.4626 7.37939C25.9116 7.8284 26.1895 8.25599 26.4226 8.85472C26.5982 9.3063 26.8074 9.98521 26.8644 11.236C26.9258 12.5885 26.9392 12.9946 26.9392 16.4184C26.9392 19.8422 26.9258 20.2485 26.8644 21.6008C26.8072 22.8516 26.5982 23.5305 26.4226 23.9822C26.1901 24.581 25.9116 25.0073 25.4626 25.456C25.0136 25.905 24.5872 26.1829 23.9883 26.4155C23.5366 26.5919 22.8571 26.8004 21.6063 26.8576C20.2539 26.919 19.8477 26.9324 16.4223 26.9324C12.9967 26.9324 12.5906 26.919 11.2383 26.8576C9.98752 26.7999 9.30861 26.5909 8.85601 26.4152C8.25741 26.1826 7.82969 25.9048 7.38068 25.4558C6.93167 25.0068 6.65379 24.5802 6.42069 23.9812C6.24506 23.5295 6.03582 22.8506 5.97886 21.5998C5.91741 20.2473 5.90509 19.8412 5.90509 16.4152C5.90509 12.9894 5.91741 12.5852 5.97886 11.2328C6.03608 9.982 6.24506 9.30309 6.42069 8.85087C6.65328 8.25214 6.93167 7.82456 7.38081 7.37554C7.82982 6.92653 8.25741 6.64853 8.85614 6.41555C9.30836 6.23915 9.98752 6.03068 11.2383 5.97321C12.4218 5.91971 12.8805 5.90368 15.2714 5.90098V5.90419ZM23.2704 8.03431C22.4204 8.03431 21.7309 8.72322 21.7309 9.57327C21.7309 10.4232 22.4204 11.1127 23.2704 11.1127C24.1203 11.1127 24.8098 10.4232 24.8098 9.57327C24.8098 8.72335 24.1203 8.03379 23.2704 8.03379V8.03431ZM16.4223 9.83306C12.784 9.83306 9.83409 12.7829 9.83409 16.4214C9.83409 20.0598 12.784 23.0083 16.4223 23.0083C20.0607 23.0083 23.0095 20.0598 23.0095 16.4214C23.0095 12.7831 20.0604 9.83306 16.422 9.83306H16.4223ZM16.4223 12.145C18.7839 12.145 20.6987 14.0594 20.6987 16.4214C20.6987 18.783 18.7839 20.6978 16.4223 20.6978C14.0605 20.6978 12.146 18.783 12.146 16.4214C12.146 14.0594 14.0605 12.145 16.4223 12.145Z" fill="white"/>
<defs>
<radialGradient id="paint0_radial_1497_156" cx="0" cy="0" r="1" gradientUnits="userSpaceOnUse" gradientTransform="translate(8.72368 35.3716) rotate(-90) scale(32.549 30.2731)">
<stop stop-color="#FFDD55"/>
<stop offset="0.1" stop-color="#FFDD55"/>
<stop offset="0.5" stop-color="#FF543E"/>
<stop offset="1" stop-color="#C837AB"/>
</radialGradient>
<radialGradient id="paint1_radial_1497_156" cx="0" cy="0" r="1" gradientUnits="userSpaceOnUse" gradientTransform="translate(-5.50118 2.36579) rotate(78.681) scale(14.5496 59.9738)">
<stop stop-color="#3771C8"/>
<stop offset="0.128" stop-color="#3771C8"/>
<stop offset="1" stop-color="#6600FF" stop-opacity="0"/>
</radialGradient>
</defs>
</svg>
