<svg width="33" height="33" viewBox="0 0 33 33" fill="none" xmlns="http://www.w3.org/2000/svg">
<path d="M25.1447 0H7.69737C3.44623 0 0 3.44623 0 7.69737V25.1447C0 29.3959 3.44623 32.8421 7.69737 32.8421H25.1447C29.3959 32.8421 32.8421 29.3959 32.8421 25.1447V7.69737C32.8421 3.44623 29.3959 0 25.1447 0Z" fill="white"/>
<path d="M25.1447 0H7.69737C3.44623 0 0 3.44623 0 7.69737V25.1447C0 29.3959 3.44623 32.8421 7.69737 32.8421H25.1447C29.3959 32.8421 32.8421 29.3959 32.8421 25.1447V7.69737C32.8421 3.44623 29.3959 0 25.1447 0Z" fill="#0A66C2"/>
<path d="M23.697 27.9267H27.452C27.5881 27.9267 27.7186 27.8726 27.8148 27.7764C27.9111 27.6802 27.9651 27.5497 27.9652 27.4137L27.9671 19.48C27.9671 15.3333 27.0736 12.1459 22.2277 12.1459C20.3856 12.0774 18.6484 13.027 17.711 14.6127C17.7064 14.6204 17.6994 14.6264 17.6911 14.6297C17.6828 14.6331 17.6737 14.6337 17.665 14.6313C17.6563 14.629 17.6487 14.6239 17.6432 14.6168C17.6377 14.6097 17.6347 14.601 17.6347 14.592V13.0419C17.6347 12.9058 17.5806 12.7753 17.4844 12.6791C17.3881 12.5828 17.2576 12.5288 17.1215 12.5288H13.558C13.4219 12.5288 13.2914 12.5828 13.1952 12.6791C13.0989 12.7753 13.0449 12.9058 13.0449 13.0419V27.4129C13.0449 27.549 13.0989 27.6795 13.1952 27.7758C13.2914 27.872 13.4219 27.9261 13.558 27.9261H17.3128C17.4489 27.9261 17.5794 27.872 17.6757 27.7758C17.7719 27.6795 17.826 27.549 17.826 27.4129V20.3091C17.826 18.3005 18.207 16.3552 20.6972 16.3552C23.152 16.3552 23.1838 18.6537 23.1838 20.4392V27.4135C23.1838 27.5496 23.2379 27.6802 23.3341 27.7764C23.4304 27.8726 23.5609 27.9267 23.697 27.9267ZM4.875 7.64964C4.875 9.17167 6.128 10.424 7.65016 10.424C9.17193 10.4239 10.4242 9.17077 10.4242 7.649C10.4239 6.12723 9.17154 4.875 7.64964 4.875C6.12736 4.875 4.875 6.12762 4.875 7.64964ZM5.76777 27.9267H9.52755C9.66364 27.9267 9.79417 27.8726 9.8904 27.7764C9.98664 27.6802 10.0407 27.5496 10.0407 27.4135V13.0419C10.0407 12.9058 9.98664 12.7753 9.8904 12.6791C9.79417 12.5828 9.66364 12.5288 9.52755 12.5288H5.76777C5.63167 12.5288 5.50114 12.5828 5.40491 12.6791C5.30867 12.7753 5.25461 12.9058 5.25461 13.0419V27.4135C5.25461 27.5496 5.30867 27.6802 5.40491 27.7764C5.50114 27.8726 5.63167 27.9267 5.76777 27.9267Z" fill="white"/>
</svg>
