<svg width="116" height="143" viewBox="0 0 116 143" fill="none" xmlns="http://www.w3.org/2000/svg">
<path d="M58.25 27.1875C64.3769 27.1875 69.3438 22.2207 69.3438 16.0938C69.3438 9.96684 64.3769 5 58.25 5C52.1231 5 47.1562 9.96684 47.1562 16.0938C47.1562 22.2207 52.1231 27.1875 58.25 27.1875Z" stroke="#F8F8F8" stroke-width="8.875" stroke-miterlimit="10"/>
<path d="M42.5246 82.5512L34.0934 130.31C33.9418 131.171 33.9615 132.054 34.1513 132.908C34.3411 133.762 34.6973 134.57 35.1996 135.286C35.7018 136.002 36.3403 136.612 37.0785 137.081C37.8166 137.55 38.64 137.869 39.5016 138.02C40.3598 138.173 41.2398 138.153 42.0906 137.964C42.9414 137.774 43.7461 137.417 44.4581 136.914C45.17 136.411 45.7751 135.772 46.2383 135.033C46.7014 134.295 47.0134 133.472 47.1562 132.612L52.9805 99.3582V99.4137C52.9805 99.4137 54.4227 90.4 57.834 90.4H58.6938C62.1605 90.4 63.5473 99.4137 63.5473 99.4137V99.3859L69.3715 132.639C69.6804 134.372 70.6648 135.91 72.1082 136.917C73.5515 137.923 75.3355 138.315 77.0678 138.006C78.8 137.697 80.3386 136.713 81.345 135.269C82.3515 133.826 82.7433 132.042 82.4344 130.31L74.0031 82.5512L72.6441 74.3141C71.8398 69.2941 71.4793 61.1125 72.7828 57.7566C73.8922 54.8723 76.7017 53.8184 79.2172 53.8184H104.844C106.609 53.8184 108.302 53.1171 109.55 51.8688C110.799 50.6205 111.5 48.9275 111.5 47.1621C111.5 45.3968 110.799 43.7037 109.55 42.4554C108.302 41.2071 106.609 40.5059 104.844 40.5059H11.6562C9.8909 40.5059 8.19786 41.2071 6.94957 42.4554C5.70128 43.7037 5 45.3968 5 47.1621C5 48.9275 5.70128 50.6205 6.94957 51.8688C8.19786 53.1171 9.8909 53.8184 11.6562 53.8184H37.3105C39.8704 53.8184 42.6355 54.8723 43.7449 57.7566C45.0484 61.1125 44.6879 69.2941 43.8836 74.3141L42.5246 82.5512Z" stroke="#F8F8F8" stroke-width="8.875" stroke-miterlimit="10"/>
</svg>
