<svg width="119" height="119" viewBox="0 0 119 119" fill="none" xmlns="http://www.w3.org/2000/svg">
<path d="M84.9633 71C85.4367 67.095 85.7917 63.19 85.7917 59.1667C85.7917 55.1433 85.4367 51.2383 84.9633 47.3333H104.962C105.908 51.12 106.5 55.0842 106.5 59.1667C106.5 63.2492 105.908 67.2133 104.962 71M74.4908 103.897C78.0408 97.3292 80.7625 90.2292 82.6558 82.8333H100.11C94.3777 92.704 85.2835 100.181 74.4908 103.897ZM73.0117 71H45.3217C44.73 67.095 44.375 63.19 44.375 59.1667C44.375 55.1433 44.73 51.1792 45.3217 47.3333H73.0117C73.5442 51.1792 73.9583 55.1433 73.9583 59.1667C73.9583 63.19 73.5442 67.095 73.0117 71ZM59.1667 106.263C54.2558 99.1633 50.2917 91.2942 47.8658 82.8333H70.4675C68.0417 91.2942 64.0775 99.1633 59.1667 106.263ZM35.5 35.5H18.2233C23.8953 25.6016 32.9834 18.1123 43.7833 14.4367C40.2333 21.0042 37.5708 28.1042 35.5 35.5ZM18.2233 82.8333H35.5C37.5708 90.2292 40.2333 97.3292 43.7833 103.897C33.0047 100.183 23.9287 92.7035 18.2233 82.8333ZM13.3717 71C12.425 67.2133 11.8333 63.2492 11.8333 59.1667C11.8333 55.0842 12.425 51.12 13.3717 47.3333H33.37C32.8967 51.2383 32.5417 55.1433 32.5417 59.1667C32.5417 63.19 32.8967 67.095 33.37 71M59.1667 12.0108C64.0775 19.1108 68.0417 27.0392 70.4675 35.5H47.8658C50.2917 27.0392 54.2558 19.1108 59.1667 12.0108ZM100.11 35.5H82.6558C80.8012 28.1729 78.0593 21.0995 74.4908 14.4367C85.3775 18.1642 94.43 25.6783 100.11 35.5ZM59.1667 0C26.4475 0 0 26.625 0 59.1667C0 74.8586 6.23361 89.9079 17.3295 101.004C22.8236 106.498 29.3461 110.856 36.5246 113.83C43.703 116.803 51.3968 118.333 59.1667 118.333C74.8586 118.333 89.9079 112.1 101.004 101.004C112.1 89.9079 118.333 74.8586 118.333 59.1667C118.333 51.3968 116.803 43.703 113.83 36.5246C110.856 29.3461 106.498 22.8236 101.004 17.3295C95.5097 11.8354 88.9872 7.4772 81.8088 4.50379C74.6303 1.53039 66.9365 0 59.1667 0Z" fill="#F8F8F8"/>
</svg>
